<mxfile host="65bd71144e">
    <diagram id="gQWwHAKkXH62pL57MteN" name="Page-1">
        <mxGraphModel dx="1169" dy="1636" grid="1" gridSize="10" guides="1" tooltips="1" connect="1" arrows="1" fold="1" page="1" pageScale="1" pageWidth="827" pageHeight="1169" math="0" shadow="0">
            <root>
                <mxCell id="0"/>
                <mxCell id="1" parent="0"/>
                <mxCell id="23" value="" style="group;rotation=45;" vertex="1" connectable="0" parent="1">
                    <mxGeometry x="120" y="-40" width="560" height="560" as="geometry"/>
                </mxCell>
                <mxCell id="2" value="" style="shape=ext;double=1;rounded=1;whiteSpace=wrap;html=1;rotation=135;arcSize=0;direction=east;fillColor=none;fontColor=#ffffff;strokeColor=default;" parent="23" vertex="1">
                    <mxGeometry x="240" y="240" width="80" height="80" as="geometry"/>
                </mxCell>
                <mxCell id="7" value="" style="shape=ext;double=1;rounded=1;whiteSpace=wrap;html=1;rotation=135;arcSize=0;direction=east;strokeColor=default;fillColor=none;" parent="23" vertex="1">
                    <mxGeometry x="325" y="325" width="80" height="80" as="geometry"/>
                </mxCell>
                <mxCell id="8" value="" style="shape=ext;double=1;rounded=1;whiteSpace=wrap;html=1;rotation=135;arcSize=0;direction=east;strokeColor=default;fillColor=none;" parent="23" vertex="1">
                    <mxGeometry x="410" y="240" width="80" height="80" as="geometry"/>
                </mxCell>
                <mxCell id="9" value="" style="shape=ext;double=1;rounded=1;whiteSpace=wrap;html=1;rotation=135;arcSize=0;direction=east;strokeColor=default;fillColor=none;" parent="23" vertex="1">
                    <mxGeometry x="325" y="155" width="80" height="80" as="geometry"/>
                </mxCell>
                <mxCell id="10" value="" style="shape=ext;double=1;rounded=1;whiteSpace=wrap;html=1;rotation=135;arcSize=0;direction=east;strokeColor=default;fillColor=none;" parent="23" vertex="1">
                    <mxGeometry x="240" y="70" width="80" height="80" as="geometry"/>
                </mxCell>
                <mxCell id="11" value="" style="shape=ext;double=1;rounded=1;whiteSpace=wrap;html=1;rotation=135;arcSize=0;direction=east;strokeColor=default;fillColor=none;" parent="23" vertex="1">
                    <mxGeometry x="155" y="155" width="80" height="80" as="geometry"/>
                </mxCell>
                <mxCell id="12" value="" style="shape=ext;double=1;rounded=1;whiteSpace=wrap;html=1;rotation=135;arcSize=0;direction=east;strokeColor=default;fillColor=none;" parent="23" vertex="1">
                    <mxGeometry x="70" y="240" width="80" height="80" as="geometry"/>
                </mxCell>
                <mxCell id="13" value="" style="shape=ext;double=1;rounded=1;whiteSpace=wrap;html=1;rotation=135;arcSize=0;direction=east;strokeColor=default;fillColor=none;" parent="23" vertex="1">
                    <mxGeometry x="155" y="325" width="80" height="80" as="geometry"/>
                </mxCell>
                <mxCell id="14" value="" style="shape=ext;double=1;rounded=1;whiteSpace=wrap;html=1;rotation=135;arcSize=0;direction=east;strokeColor=default;fillColor=none;" parent="23" vertex="1">
                    <mxGeometry x="240" y="410" width="80" height="80" as="geometry"/>
                </mxCell>
                <mxCell id="15" value="" style="shape=ext;double=1;rounded=1;whiteSpace=wrap;html=1;rotation=135;arcSize=0;direction=east;strokeColor=default;fillColor=none;" parent="23" vertex="1">
                    <mxGeometry x="452" y="367" width="80" height="80" as="geometry"/>
                </mxCell>
                <mxCell id="16" value="" style="shape=ext;double=1;rounded=1;whiteSpace=wrap;html=1;rotation=135;arcSize=0;direction=east;strokeColor=default;fillColor=none;" parent="23" vertex="1">
                    <mxGeometry x="367" y="452" width="80" height="80" as="geometry"/>
                </mxCell>
                <mxCell id="17" value="" style="shape=ext;double=1;rounded=1;whiteSpace=wrap;html=1;rotation=135;arcSize=0;direction=east;strokeColor=default;fillColor=none;" parent="23" vertex="1">
                    <mxGeometry x="452" y="113" width="80" height="80" as="geometry"/>
                </mxCell>
                <mxCell id="18" value="" style="shape=ext;double=1;rounded=1;whiteSpace=wrap;html=1;rotation=135;arcSize=0;direction=east;strokeColor=default;fillColor=none;" parent="23" vertex="1">
                    <mxGeometry x="367" y="28" width="80" height="80" as="geometry"/>
                </mxCell>
                <mxCell id="19" value="" style="shape=ext;double=1;rounded=1;whiteSpace=wrap;html=1;rotation=135;arcSize=0;direction=east;strokeColor=default;fillColor=none;" parent="23" vertex="1">
                    <mxGeometry x="113" y="28" width="80" height="80" as="geometry"/>
                </mxCell>
                <mxCell id="20" value="" style="shape=ext;double=1;rounded=1;whiteSpace=wrap;html=1;rotation=135;arcSize=0;direction=east;strokeColor=default;fillColor=none;" parent="23" vertex="1">
                    <mxGeometry x="28" y="113" width="80" height="80" as="geometry"/>
                </mxCell>
                <mxCell id="21" value="" style="shape=ext;double=1;rounded=1;whiteSpace=wrap;html=1;rotation=135;arcSize=0;direction=east;strokeColor=default;fillColor=none;" parent="23" vertex="1">
                    <mxGeometry x="28" y="367" width="80" height="80" as="geometry"/>
                </mxCell>
                <mxCell id="22" value="" style="shape=ext;double=1;rounded=1;whiteSpace=wrap;html=1;rotation=135;arcSize=0;direction=east;strokeColor=default;fillColor=none;" parent="23" vertex="1">
                    <mxGeometry x="113" y="452" width="80" height="80" as="geometry"/>
                </mxCell>
            </root>
        </mxGraphModel>
    </diagram>
</mxfile>